# 3ds Max Wavefront OBJ Exporter v0.97b - (c)2007 guruware
# File Created: 24.01.2015 15:52:39

#
# object Pedestal001
#

v  0.0000 0.0000 -0.0000
v  6.0000 9.1950 -0.0000
v  6.0000 9.1950 4.4631
v  -6.0000 9.1950 -0.0000
v  -6.0000 9.1950 -4.4631
v  6.0000 39.5739 4.4631
v  3.0000 39.5739 5.2315
v  3.0000 9.1950 5.2315
v  6.0000 9.1950 -4.4631
v  6.0000 42.0000 -4.4631
v  6.0000 40.7870 -0.0000
v  -6.0000 42.0000 -4.4631
v  -3.0000 42.0000 -5.2315
v  -3.0000 9.1950 -5.2315
v  -6.0000 39.5739 4.4631
v  -6.0000 40.7870 -0.0000
v  -6.0000 9.1950 4.4631
v  -3.0000 39.5739 5.2315
v  -3.0000 9.1950 5.2315
v  0.0000 9.1950 6.0000
v  0.0000 39.5739 6.0000
v  3.0000 42.0000 -5.2315
v  3.0000 9.1950 -5.2315
v  0.0000 9.1950 -6.0000
v  0.0000 42.0000 -6.0000
v  -2.5000 39.7785 4.3490
v  -5.0000 39.7504 3.7021
v  2.5000 39.7785 4.3490
v  0.0000 39.8067 4.9960
v  5.0000 40.7870 -0.0000
v  5.0000 39.7504 3.7021
v  2.5000 41.7954 -4.3490
v  5.0000 41.8236 -3.7021
v  -2.5000 41.7954 -4.3490
v  0.0000 41.7672 -4.9960
v  -5.0000 40.7870 0.0000
v  -5.0000 41.8236 -3.7021
v  -2.5574 40.9773 4.6307
v  -5.1148 41.1287 4.0839
v  2.5574 40.9773 4.6307
v  0.0000 40.8259 5.1775
v  5.0000 42.1579 0.3838
v  5.1148 41.1287 4.0839
v  2.4426 43.3688 -3.9719
v  4.8852 43.1872 -3.3163
v  -2.4426 43.3688 -3.9719
v  0.0000 43.5505 -4.6275
v  -5.0000 42.1579 0.3838
v  -4.8852 43.1872 -3.3163
v  -3.4695 42.6980 -1.5577
v  -3.9992 42.1616 0.3662
v  3.9997 42.1616 0.3662
v  3.4636 41.6258 2.2968
v  -2.0012 41.2361 3.7080
v  -3.4636 41.6265 2.2977
v  2.0004 43.0866 -2.9741
v  3.4641 42.7001 -1.5655
v  0.0000 41.0912 4.2230
v  2.0014 41.2353 3.7069
v  -4.0013 42.1611 0.3725
v  -2.0040 43.0851 -2.9688
v  0.0000 43.2327 -3.4840
v  -1.7320 41.0290 -3.0535
v  0.0000 41.1524 -3.5009
v  0.0000 43.2229 -3.4856
v  -3.0000 40.6918 -1.8312
v  -3.4641 42.6910 -1.5576
v  -3.4641 40.2312 -0.1615
v  -3.0000 39.7705 1.5082
v  -1.7320 39.4333 2.7305
v  0.0000 39.3099 3.1779
v  0.0000 41.0954 4.2263
v  3.0000 39.7705 1.5082
v  1.7321 39.4333 2.7305
v  3.4641 41.6273 2.2983
v  3.4641 40.2312 -0.1615
v  3.0000 40.6918 -1.8312
v  3.4641 42.6910 -1.5576
v  1.7321 41.0290 -3.0535
v  -1.0000 39.2804 -2.2205
v  0.0000 39.3516 -2.4788
v  -1.7320 39.0857 -1.5149
v  -2.0000 38.8198 -0.5509
v  -1.7320 38.5538 0.4131
v  -1.0000 38.3592 1.1188
v  0.0000 38.2879 1.3771
v  1.0000 38.3592 1.1188
v  1.7321 38.5538 0.4131
v  2.0000 38.8198 -0.5509
v  1.7321 39.0857 -1.5149
v  1.0000 39.2804 -2.2205
v  0.0000 38.3032 -0.6934
# 92 vertices

vn 0.8375 -0.5465 -0.0000
vn 0.9585 -0.2851 -0.0000
vn 0.9695 -0.2449 -0.0000
vn -0.8375 -0.5465 -0.0000
vn -0.9585 -0.2851 -0.0000
vn -0.9695 -0.2449 -0.0000
vn 0.2481 0.0000 0.9687
vn 0.2384 -0.2781 0.9305
vn 0.2411 -0.2364 0.9413
vn 1.0000 0.0000 -0.0000
vn -0.2481 0.0000 -0.9687
vn -0.2384 -0.2781 -0.9305
vn -0.2411 -0.2364 -0.9413
vn -1.0000 0.0000 -0.0000
vn -0.2481 0.0000 0.9687
vn -0.2384 -0.2781 0.9305
vn -0.0000 -0.2735 0.9619
vn 0.0000 0.0000 1.0000
vn 0.2481 0.0000 -0.9687
vn 0.2384 -0.2781 -0.9305
vn 0.0000 -0.2735 -0.9619
vn 0.0000 0.0000 -1.0000
vn -0.0544 0.9799 0.1921
vn -0.0570 0.9784 0.1988
vn -0.0105 0.9756 0.2193
vn -0.0072 0.9762 0.2168
vn 0.0000 0.9758 0.2189
vn 0.0544 0.9799 0.1921
vn 0.0570 0.9784 0.1988
vn 0.0000 0.9742 0.2259
vn -0.0000 0.9633 0.2684
vn -0.0000 0.9630 0.2696
vn 0.0105 0.9756 0.2193
vn 0.0072 0.9762 0.2168
vn -0.2235 -0.2649 0.9380
vn -0.2412 -0.2329 0.9421
vn -0.2342 -0.2330 0.9439
vn -0.2166 -0.2773 0.9361
vn 0.2325 -0.2256 0.9461
vn 0.2252 -0.2404 0.9442
vn 0.0110 -0.1844 0.9828
vn 0.0114 -0.1843 0.9828
vn 0.9999 -0.0057 -0.0136
vn 0.9998 0.0137 -0.0152
vn 0.9981 -0.0579 -0.0232
vn 0.9968 -0.0770 -0.0216
vn 0.2584 0.2342 -0.9372
vn 0.2682 0.2338 -0.9346
vn 0.2483 0.2657 -0.9315
vn 0.2373 0.2829 -0.9293
vn -0.2584 0.2342 -0.9372
vn -0.2682 0.2338 -0.9346
vn 0.0000 0.2167 -0.9762
vn 0.0000 0.2023 -0.9793
vn -0.9999 0.0119 -0.0087
vn -0.9998 -0.0038 -0.0201
vn -0.9980 0.0621 0.0104
vn -0.9967 0.0777 0.0218
vn 0.0009 0.9636 0.2675
vn 0.0011 0.9634 0.2681
vn 0.0002 0.9635 0.2677
vn -0.0002 0.9813 0.1923
vn 0.9978 0.0665 -0.0054
vn 0.9963 0.0858 -0.0070
vn -0.9978 -0.0535 -0.0388
vn -0.9964 -0.0691 -0.0501
vn -0.0007 0.9634 0.2680
vn -0.0012 0.9634 0.2680
vn 0.0001 0.9635 0.2679
vn -0.0007 0.9632 0.2689
vn -0.0010 0.9630 0.2695
vn -0.0006 0.9634 0.2681
vn -0.0004 0.9634 0.2681
vn -0.0011 0.9634 0.2681
vn -0.0013 0.9624 0.2716
vn -0.0011 0.9629 0.2699
vn -0.0009 0.9636 0.2675
vn 0.0000 0.9634 0.2682
vn -0.0000 0.9635 0.2677
vn 0.0005 0.9634 0.2682
vn 0.0007 0.9633 0.2686
vn -0.0012 0.9854 0.1702
vn 0.0000 0.9631 0.2690
vn 0.0013 0.9624 0.2716
vn 0.0011 0.9629 0.2699
vn 0.0000 0.9635 0.2677
vn -0.0000 -0.5465 0.8375
vn 0.2235 -0.2649 0.9380
vn 0.2166 -0.2773 0.9361
vn -0.2411 -0.2364 0.9413
vn -0.0000 -0.5465 -0.8375
vn 0.2411 -0.2364 -0.9413
vn -0.2373 0.2829 -0.9293
vn -0.2483 0.2657 -0.9315
vn 0.4377 0.2635 0.8596
vn 0.0004 0.2323 0.9726
vn 0.0011 -0.0073 1.0000
vn 0.4832 0.0276 0.8751
vn 0.7586 0.3487 0.5504
vn 0.8367 0.1212 0.5341
vn 0.8761 0.4648 0.1280
vn 0.9660 0.2490 0.0694
vn 0.7588 0.5813 -0.2939
vn 0.8369 0.3777 -0.3962
vn 0.4380 0.6667 -0.6030
vn 0.4832 0.4720 -0.7373
vn -0.0000 0.6979 -0.7162
vn -0.0001 0.5064 -0.8623
vn -0.7586 0.5815 -0.2939
vn -0.4379 0.6667 -0.6031
vn -0.4832 0.4719 -0.7374
vn -0.8368 0.3776 -0.3964
vn -0.8760 0.4650 0.1282
vn -0.9660 0.2489 0.0695
vn -0.7586 0.3485 0.5505
vn -0.8365 0.1215 0.5343
vn -0.4381 0.2641 0.8592
vn -0.4827 0.0286 0.8753
vn 0.2654 0.6946 0.6686
vn -0.0000 0.6757 0.7371
vn 0.4598 0.7463 0.4813
vn 0.5309 0.8169 0.2254
vn 0.4598 0.8875 -0.0305
vn 0.2654 0.9392 -0.2179
vn 0.0000 0.9581 -0.2864
vn -0.2654 0.9392 -0.2179
vn -0.4598 0.8875 -0.0305
vn -0.5309 0.8169 0.2254
vn -0.4598 0.7463 0.4813
vn -0.2654 0.6946 0.6686
vn -0.0000 0.9640 0.2659
# 131 vertex normals

vt 0.4384 0.0025 0.0000
vt 0.4385 0.1889 0.0000
vt 0.3625 0.1886 0.0000
vt 0.0804 0.0026 0.0000
vt 0.0803 0.1889 0.0000
vt 0.0046 0.1889 0.0000
vt 0.3634 0.7049 0.0000
vt 0.3116 0.7067 0.0000
vt 0.3104 0.1915 0.0000
vt 0.5142 0.1886 0.0000
vt 0.5142 0.7460 0.0000
vt 0.4385 0.7249 0.0000
vt 0.7258 0.7452 0.0000
vt 0.6731 0.7469 0.0000
vt 0.6673 0.1905 0.0000
vt 0.7191 0.1869 0.0000
vt 0.1554 0.7049 0.0000
vt 0.0803 0.7248 0.0000
vt 0.1563 0.1886 0.0000
vt 0.2072 0.7067 0.0000
vt 0.2084 0.1915 0.0000
vt 0.2594 0.1948 0.0000
vt 0.2594 0.7079 0.0000
vt 0.5669 0.7476 0.0000
vt 0.5659 0.1912 0.0000
vt 0.6167 0.1942 0.0000
vt 0.6200 0.7484 0.0000
vt 0.1526 0.7521 0.0000
vt 0.1587 0.7684 0.0000
vt 0.1149 0.7725 0.0000
vt 0.1003 0.7568 0.0000
vt 0.2037 0.7464 0.0000
vt 0.2547 0.7529 0.0000
vt 0.2485 0.7691 0.0000
vt 0.2036 0.7640 0.0000
vt 0.3315 0.8633 0.0000
vt 0.3146 0.8629 0.0000
vt 0.3144 0.7977 0.0000
vt 0.3312 0.7846 0.0000
vt 0.2562 0.9774 0.0000
vt 0.2485 0.9618 0.0000
vt 0.2912 0.9512 0.0000
vt 0.3077 0.9640 0.0000
vt 0.2039 0.9867 0.0000
vt 0.1520 0.9771 0.0000
vt 0.1594 0.9614 0.0000
vt 0.2039 0.9693 0.0000
vt 0.0759 0.8632 0.0000
vt 0.0929 0.8628 0.0000
vt 0.0962 0.9280 0.0000
vt 0.0798 0.9418 0.0000
vt 0.1607 0.7890 0.0000
vt 0.1170 0.7969 0.0000
vt 0.2463 0.7899 0.0000
vt 0.2036 0.7812 0.0000
vt 0.2907 0.8623 0.0000
vt 0.2900 0.7973 0.0000
vt 0.2444 0.9346 0.0000
vt 0.2868 0.9274 0.0000
vt 0.1632 0.9344 0.0000
vt 0.2038 0.9394 0.0000
vt 0.1169 0.8621 0.0000
vt 0.1207 0.9275 0.0000
vt 0.1426 0.8949 0.0000
vt 0.1336 0.8624 0.0000
vt 0.0046 0.7453 0.0000
vt 0.3276 0.9419 0.0000
vt 0.3112 0.9281 0.0000
vt 0.0762 0.7845 0.0000
vt 0.0929 0.7976 0.0000
vt 0.2740 0.8626 0.0000
vt 0.2635 0.8298 0.0000
vt 0.1693 0.8056 0.0000
vt 0.1438 0.8292 0.0000
vt 0.2390 0.9162 0.0000
vt 0.2648 0.8951 0.0000
vt 0.2034 0.7977 0.0000
vt 0.2374 0.8066 0.0000
vt 0.1337 0.8627 0.0000
vt 0.1685 0.9160 0.0000
vt 0.2038 0.9203 0.0000
vt 0.2594 0.0118 0.0000
vt 0.3068 0.7574 0.0000
vt 0.2922 0.7731 0.0000
vt 0.6152 0.0110 0.0000
vt 0.1003 0.9663 0.0000
vt 0.1163 0.9521 0.0000
vt 0.4861 0.9227 0.0000
vt 0.4550 0.9310 0.0000
vt 0.4550 0.9639 0.0000
vt 0.5026 0.9512 0.0000
vt 0.5088 0.8999 0.0000
vt 0.5373 0.9163 0.0000
vt 0.5171 0.8688 0.0000
vt 0.5500 0.8688 0.0000
vt 0.5087 0.8376 0.0000
vt 0.5371 0.8211 0.0000
vt 0.4859 0.8149 0.0000
vt 0.5020 0.7862 0.0000
vt 0.4549 0.8066 0.0000
vt 0.4536 0.7736 0.0000
vt 0.4016 0.8381 0.0000
vt 0.4248 0.8151 0.0000
vt 0.4055 0.7878 0.0000
vt 0.3727 0.8223 0.0000
vt 0.3932 0.8691 0.0000
vt 0.3602 0.8693 0.0000
vt 0.4014 0.9000 0.0000
vt 0.3729 0.9165 0.0000
vt 0.4240 0.9227 0.0000
vt 0.4076 0.9513 0.0000
vt 0.4703 0.8953 0.0000
vt 0.4551 0.8994 0.0000
vt 0.4815 0.8842 0.0000
vt 0.4855 0.8689 0.0000
vt 0.4815 0.8536 0.0000
vt 0.4703 0.8424 0.0000
vt 0.4552 0.8384 0.0000
vt 0.4401 0.8426 0.0000
vt 0.4289 0.8537 0.0000
vt 0.4248 0.8690 0.0000
vt 0.4288 0.8842 0.0000
vt 0.4399 0.8953 0.0000
vt 0.4552 0.8689 0.0000
# 124 texture coords

g Pedestal001
s 2
f 1/1/1 2/2/2 3/3/3 
s 8
f 1/4/4 4/5/5 5/6/6 
s 1
f 6/7/7 7/8/7 8/9/8 
f 8/9/8 3/3/9 6/7/7 
s 2
f 9/10/3 10/11/10 11/12/10 
f 11/12/10 2/2/2 9/10/3 
s 4
f 12/13/11 13/14/11 14/15/12 
f 14/15/12 5/16/13 12/13/11 
s 8
f 15/17/14 16/18/14 4/5/5 
f 4/5/5 17/19/6 15/17/14 
s 1
f 18/20/15 19/21/16 20/22/17 
f 20/22/17 21/23/18 18/20/15 
s 4
f 22/24/19 23/25/20 24/26/21 
f 24/26/21 25/27/22 22/24/19 
s 16
f 18/28/23 26/29/24 27/30/25 
f 27/30/25 15/31/26 18/28/23 
f 21/32/27 7/33/28 28/34/29 
f 28/34/29 29/35/30 21/32/27 
f 11/36/31 30/37/32 31/38/33 
f 31/38/33 6/39/34 11/36/31 
f 22/40/23 32/41/24 33/42/25 
f 33/42/25 10/43/26 22/40/23 
f 25/44/27 13/45/28 34/46/29 
f 34/46/29 35/47/30 25/44/27 
f 16/48/31 36/49/32 37/50/33 
f 37/50/33 12/51/34 16/48/31 
s 1
f 27/30/35 26/29/36 38/52/37 
f 38/52/37 39/53/38 27/30/35 
f 28/34/39 40/54/40 41/55/41 
f 41/55/41 29/35/42 28/34/39 
s 2
f 30/37/43 42/56/44 43/57/45 
f 43/57/45 31/38/46 30/37/43 
s 1
f 32/41/47 44/58/48 45/59/49 
f 45/59/49 33/42/50 32/41/47 
f 34/46/51 46/60/52 47/61/53 
f 47/61/53 35/47/54 34/46/51 
s 2
f 36/49/55 48/62/56 49/63/57 
f 49/63/57 37/50/58 36/49/55 
s 4
f 50/64/59 49/63/60 48/62/61 
f 48/62/61 51/65/62 50/64/59 
s 2
f 6/7/10 3/3/3 2/2/2 
f 2/2/2 11/12/10 6/7/10 
s 8
f 16/18/14 12/66/14 5/6/6 
f 5/6/6 4/5/5 16/18/14 
s 16
f 11/36/31 10/67/26 33/68/25 
f 33/68/25 30/37/32 11/36/31 
f 16/48/31 15/69/26 27/70/25 
f 27/70/25 36/49/32 16/48/31 
s 2
f 33/68/63 45/59/64 42/56/44 
f 42/56/44 30/37/43 33/68/63 
f 27/70/65 39/53/66 48/62/56 
f 48/62/56 36/49/55 27/70/65 
f 1/1/1 9/10/3 2/2/2 
s 8
f 1/4/4 17/19/6 4/5/5 
s 4
f 42/56/67 52/71/68 53/72/69 
f 53/72/69 43/57/69 42/56/67 
f 38/52/70 54/73/71 55/74/72 
f 55/74/72 39/53/73 38/52/70 
f 45/59/74 44/58/75 56/75/76 
f 56/75/76 57/76/77 45/59/74 
f 58/77/78 41/55/79 40/54/80 
f 40/54/80 59/78/81 58/77/78 
f 60/79/82 51/65/62 48/62/61 
f 48/62/61 39/53/73 55/74/72 
f 60/79/82 48/62/61 55/74/72 
f 47/61/83 46/60/84 61/80/85 
f 61/80/85 62/81/86 47/61/83 
f 42/56/67 45/59/74 57/76/77 
f 57/76/77 52/71/68 42/56/67 
s 1
f 8/9/8 20/22/17 1/82/87 
f 21/23/18 20/22/17 8/9/8 
f 8/9/8 7/8/7 21/23/18 
s 16
f 7/33/28 6/83/34 31/84/33 
f 31/84/33 28/34/29 7/33/28 
s 1
f 31/84/88 43/57/89 40/54/40 
f 40/54/40 28/34/39 31/84/88 
f 1/82/87 3/3/9 8/9/8 
f 15/17/15 17/19/90 19/21/16 
f 19/21/16 18/20/15 15/17/15 
s 16
f 21/32/27 29/35/30 26/29/24 
f 26/29/24 18/28/23 21/32/27 
s 1
f 29/35/42 41/55/41 38/52/37 
f 38/52/37 26/29/36 29/35/42 
f 19/21/16 17/19/90 1/82/87 
s 4
f 5/16/13 14/15/12 1/85/91 
f 10/11/19 9/10/92 23/25/20 
f 23/25/20 22/24/19 10/11/19 
s 16
f 25/44/27 35/47/30 32/41/24 
f 32/41/24 22/40/23 25/44/27 
s 1
f 32/41/47 35/47/54 47/61/53 
f 47/61/53 44/58/48 32/41/47 
s 4
f 1/85/91 23/25/20 9/10/92 
f 25/27/22 24/26/21 14/15/12 
f 14/15/12 13/14/11 25/27/22 
s 16
f 13/45/28 12/86/34 37/87/33 
f 37/87/33 34/46/29 13/45/28 
s 1
f 34/46/51 37/87/93 49/63/94 
f 49/63/94 46/60/52 34/46/51 
s 4
f 14/15/12 24/26/21 1/85/91 
f 40/54/80 43/57/69 53/72/69 
f 53/72/69 59/78/81 40/54/80 
f 47/61/83 62/81/86 56/75/76 
f 56/75/76 44/58/75 47/61/83 
f 49/63/60 50/64/59 61/80/85 
f 61/80/85 46/60/84 49/63/60 
f 38/52/70 41/55/79 58/77/78 
f 58/77/78 54/73/71 38/52/70 
s 1
f 20/22/17 19/21/16 1/82/87 
s 4
f 24/26/21 23/25/20 1/85/91 
s 1
f 63/88/95 64/89/96 65/90/97 
f 65/90/97 61/91/98 63/88/95 
f 66/92/99 63/88/95 61/91/98 
f 61/91/98 67/93/100 66/92/99 
f 68/94/101 66/92/99 67/93/100 
f 67/93/100 51/95/102 68/94/101 
f 69/96/103 68/94/101 51/95/102 
f 51/95/102 55/97/104 69/96/103 
f 70/98/105 69/96/103 55/97/104 
f 55/97/104 54/99/106 70/98/105 
f 71/100/107 70/98/105 54/99/106 
f 54/99/106 72/101/108 71/100/107 
f 73/102/109 74/103/110 59/104/111 
f 59/104/111 75/105/112 73/102/109 
f 76/106/113 73/102/109 75/105/112 
f 75/105/112 52/107/114 76/106/113 
f 77/108/115 76/106/113 52/107/114 
f 52/107/114 78/109/116 77/108/115 
f 79/110/117 77/108/115 78/109/116 
f 78/109/116 56/111/118 79/110/117 
f 64/89/96 79/110/117 56/111/118 
f 56/111/118 65/90/97 64/89/96 
f 80/112/119 81/113/120 64/89/96 
f 64/89/96 63/88/95 80/112/119 
f 82/114/121 80/112/119 63/88/95 
f 63/88/95 66/92/99 82/114/121 
f 83/115/122 82/114/121 66/92/99 
f 66/92/99 68/94/101 83/115/122 
f 84/116/123 83/115/122 68/94/101 
f 68/94/101 69/96/103 84/116/123 
f 85/117/124 84/116/123 69/96/103 
f 69/96/103 70/98/105 85/117/124 
f 86/118/125 85/117/124 70/98/105 
f 70/98/105 71/100/107 86/118/125 
f 87/119/126 86/118/125 71/100/107 
f 71/100/107 74/103/110 87/119/126 
f 88/120/127 87/119/126 74/103/110 
f 74/103/110 73/102/109 88/120/127 
f 89/121/128 88/120/127 73/102/109 
f 73/102/109 76/106/113 89/121/128 
f 90/122/129 89/121/128 76/106/113 
f 76/106/113 77/108/115 90/122/129 
f 91/123/130 90/122/129 77/108/115 
f 77/108/115 79/110/117 91/123/130 
f 81/113/120 91/123/130 79/110/117 
f 79/110/117 64/89/96 81/113/120 
f 92/124/131 81/113/120 80/112/119 
f 92/124/131 80/112/119 82/114/121 
f 92/124/131 82/114/121 83/115/122 
f 92/124/131 83/115/122 84/116/123 
f 92/124/131 84/116/123 85/117/124 
f 92/124/131 85/117/124 86/118/125 
f 92/124/131 86/118/125 87/119/126 
f 92/124/131 87/119/126 88/120/127 
f 92/124/131 88/120/127 89/121/128 
f 92/124/131 89/121/128 90/122/129 
f 92/124/131 90/122/129 91/123/130 
f 92/124/131 91/123/130 81/113/120 
f 59/104/111 74/103/110 71/100/107 
f 71/100/107 72/101/108 59/104/111 
# 169 faces

