# This file uses inches as units for non-parametric coordinates.

mtllib yawning.mtl
g default
v -18.818150 1.547494 -223.193954
v -20.253613 1.306914 -223.526169
v -21.404766 1.113982 -222.595337
v -21.404766 1.113982 -221.102432
v -20.253613 1.306914 -220.171600
v -18.818150 1.547494 -220.503815
v -18.179310 1.654562 -221.848892
v -34.522644 95.250511 -223.193954
v -35.958107 95.009933 -223.526169
v -37.109261 94.817001 -222.595337
v -37.109261 94.817001 -221.102432
v -35.958107 95.009933 -220.171600
v -34.522644 95.250511 -220.503815
v -33.883804 95.357582 -221.848892
v -36.663715 84.987038 -120.261131
v -20.014015 91.468842 -120.261131
v 13.997062 94.981941 -120.261131
v 48.008137 107.082344 -120.261131
v -39.110065 84.987038 -154.984879
v -20.014015 95.243301 -154.984879
v 13.997062 98.756409 -154.984879
v 48.008137 110.856819 -154.984879
v -39.110065 84.987038 -192.396301
v -20.014015 95.243301 -192.396301
v 13.997062 100.330246 -192.396301
v 48.008137 110.856819 -192.396301
v -34.493713 84.987038 -225.669617
v -20.014015 88.804405 -225.669617
v 13.997062 92.461182 -225.669617
v 48.008137 104.417915 -225.669617
v 48.008137 110.856819 -121.325790
v 13.997062 98.836060 -121.325790
v -20.014015 95.243301 -121.325790
v -39.110065 84.987038 -121.325790
v 48.008137 110.856819 -224.189056
v 13.997062 100.330246 -224.189056
v -20.014015 95.243301 -224.189056
v -39.110065 84.987038 -224.189056
v -31.672729 93.061623 -120.261131
v -34.278885 92.345543 -120.261131
v -36.153275 90.398384 -120.261131
v -36.769619 87.766861 -120.261131
v -36.739082 96.121902 -121.327362
v -38.634220 94.176926 -121.331619
v -39.280170 91.539276 -121.337402
v -34.119083 96.836090 -121.325790
v -36.739082 96.121902 -154.984879
v -38.634220 94.176926 -154.984879
v -39.280170 91.539276 -154.984879
v -34.119083 96.836090 -154.984879
v -36.739082 96.121902 -192.396301
v -38.634220 94.176926 -192.396301
v -39.280170 91.539276 -192.396301
v -34.119083 96.836090 -192.396301
v -38.634220 94.176926 -224.180573
v -36.739082 96.121902 -224.186768
v -34.119083 96.836090 -224.189041
v -39.280170 91.539276 -224.172180
v -34.500542 86.199928 -225.669617
v -33.929600 87.728340 -225.669617
v -32.087296 89.678368 -225.669617
v -29.502731 90.397194 -225.669617
v -3.292698 88.389091 -225.669617
v -3.292698 94.985947 -224.189056
v -3.292698 94.985947 -192.396301
v -3.292698 94.827995 -154.984879
v -3.292698 94.827995 -121.325790
v -3.292698 91.053520 -120.261131
v 31.927530 99.489235 -225.669617
v 31.927530 105.928131 -224.189056
v 31.927530 105.928131 -192.396301
v 31.927530 105.928131 -154.984879
v 31.927530 105.974258 -121.325790
v 31.927530 102.153664 -120.261131
v -18.818150 1.547494 -125.135231
v -20.253613 1.306914 -125.467438
v -21.404766 1.113982 -124.536613
v -21.404766 1.113982 -123.043701
v -20.253613 1.306914 -122.112877
v -18.818150 1.547494 -122.445091
v -18.179310 1.654562 -123.790161
v -34.522644 95.250511 -125.135231
v -35.958107 95.009933 -125.467438
v -37.109261 94.817001 -124.536613
v -37.109261 94.817001 -123.043701
v -35.958107 95.009933 -122.112877
v -34.522644 95.250511 -122.445091
v -33.883804 95.357582 -123.790161
v -35.996407 80.636826 -126.667610
v 45.206245 101.143265 -126.631073
v -35.999115 80.645142 -125.309723
v 45.203537 101.151581 -125.273186
v -36.638000 83.175064 -125.326492
v 44.564651 103.681503 -125.289955
v -36.635292 83.166748 -126.684380
v 44.567360 103.673187 -126.647842
v -35.808842 80.061493 -220.615463
v 45.393810 100.567932 -220.578918
v -35.811550 80.069809 -219.257584
v 45.391102 100.576248 -219.221039
v -36.450436 82.599731 -219.274353
v 44.752216 103.106171 -219.237808
v -36.447727 82.591415 -220.632233
v 44.754925 103.097855 -220.595688
vt 0.346623 0.642560
vt 0.297105 0.642560
vt 0.297105 0.000000
vt 0.346623 0.000000
vt 0.247588 0.642560
vt 0.247588 0.000000
vt 0.198070 0.642560
vt 0.198070 0.000000
vt 0.148553 0.642560
vt 0.148553 0.000000
vt 0.099035 0.642560
vt 0.099035 0.000000
vt 0.049518 0.642560
vt 0.049518 0.000000
vt 0.000000 0.642560
vt 0.000000 0.000000
vt 0.699845 0.911632
vt 0.582451 0.911632
vt 0.582451 0.887290
vt 0.690605 0.887290
vt 0.470221 0.911632
vt 0.369570 0.911632
vt 0.369570 0.887290
vt 0.470221 0.887290
vt 0.690605 0.670723
vt 0.582451 0.670723
vt 0.582451 0.437471
vt 0.690605 0.437471
vt 0.470221 0.670723
vt 0.369570 0.670723
vt 0.369570 0.437471
vt 0.470221 0.437471
vt 0.582451 0.246588
vt 0.690605 0.246588
vt 0.369570 0.246588
vt 0.470221 0.246588
vt 0.470221 0.887290
vt 0.369570 0.887290
vt 0.690605 0.887290
vt 0.582451 0.887290
vt 0.470221 0.246588
vt 0.369570 0.246588
vt 0.369570 0.204037
vt 0.470221 0.204037
vt 0.690605 0.246588
vt 0.582451 0.246588
vt 0.582451 0.204037
vt 0.690605 0.204037
vt 0.957705 0.911632
vt 0.937377 0.911632
vt 0.925513 0.887290
vt 0.941196 0.887290
vt 0.913939 0.911632
vt 0.909905 0.887290
vt 0.865865 0.911632
vt 0.865865 0.887290
vt 0.941196 0.887290
vt 0.925513 0.887290
vt 0.918435 0.670723
vt 0.935621 0.670723
vt 0.909905 0.887290
vt 0.901198 0.670723
vt 0.865865 0.887290
vt 0.865865 0.670723
vt 0.918821 0.437471
vt 0.935980 0.437471
vt 0.901674 0.437471
vt 0.865865 0.437471
vt 0.928343 0.246588
vt 0.942732 0.246588
vt 0.913600 0.246588
vt 0.865865 0.246588
vt 0.942732 0.246588
vt 0.928343 0.246588
vt 0.936453 0.204037
vt 0.954010 0.204037
vt 0.913600 0.246588
vt 0.913786 0.204037
vt 0.865865 0.246588
vt 0.865865 0.204037
vt 0.975945 0.911632
vt 0.980240 0.887290
vt 0.977150 0.670723
vt 0.976780 0.437471
vt 0.977353 0.246588
vt 0.980240 0.887290
vt 0.813378 0.911632
vt 0.795203 0.887290
vt 0.795203 0.887290
vt 0.795203 0.670723
vt 0.795203 0.437471
vt 0.795203 0.246588
vt 0.795203 0.246588
vt 0.795203 0.204037
vt 0.977353 0.246588
vt 0.975961 0.204037
vt 0.346623 0.642560
vt 0.297105 0.642560
vt 0.297105 0.000000
vt 0.346623 0.000000
vt 0.247588 0.642560
vt 0.247588 0.000000
vt 0.198070 0.642560
vt 0.198070 0.000000
vt 0.148553 0.642560
vt 0.148553 0.000000
vt 0.099035 0.642560
vt 0.099035 0.000000
vt 0.049518 0.642560
vt 0.049518 0.000000
vt 0.000000 0.642560
vt 0.000000 0.000000
vt 0.836019 0.186447
vt 0.445270 0.187973
vt 0.445077 0.138473
vt 0.835825 0.136948
vt 0.444926 0.099798
vt 0.835674 0.098272
vt 0.444733 0.050298
vt 0.835481 0.048773
vt 0.444582 0.011623
vt 0.835330 0.010098
vt 0.406595 0.188124
vt 0.406402 0.138624
vt 0.874694 0.186296
vt 0.874501 0.136797
vt 0.836019 0.186447
vt 0.445270 0.187973
vt 0.445077 0.138473
vt 0.835825 0.136948
vt 0.444926 0.099798
vt 0.835674 0.098272
vt 0.444733 0.050298
vt 0.835481 0.048773
vt 0.444582 0.011623
vt 0.835330 0.010098
vt 0.406595 0.188124
vt 0.406402 0.138624
vt 0.874694 0.186296
vt 0.874501 0.136797
vn 0.219462 0.036782 -0.974927
vn 0.219462 0.036782 -0.974927
vn 0.219462 0.036782 -0.974927
vn 0.219462 0.036782 -0.974927
vn -0.614914 -0.103060 -0.781831
vn -0.614914 -0.103060 -0.781831
vn -0.614914 -0.103060 -0.781831
vn -0.614914 -0.103060 -0.781831
vn -0.986245 -0.165292 0.000000
vn -0.986245 -0.165292 0.000000
vn -0.986245 -0.165292 0.000000
vn -0.986245 -0.165292 0.000000
vn -0.614914 -0.103060 0.781831
vn -0.614914 -0.103060 0.781831
vn -0.614914 -0.103060 0.781831
vn -0.614914 -0.103060 0.781831
vn 0.219475 0.036782 0.974925
vn 0.219475 0.036782 0.974924
vn 0.219475 0.036782 0.974924
vn 0.219475 0.036782 0.974925
vn 0.888576 0.148925 0.433883
vn 0.888576 0.148925 0.433883
vn 0.888576 0.148925 0.433883
vn 0.888576 0.148925 0.433883
vn 0.888579 0.148921 -0.433878
vn 0.888579 0.148921 -0.433878
vn 0.888579 0.148921 -0.433878
vn 0.888579 0.148921 -0.433878
vn -0.025956 0.270129 0.962474
vn -0.080020 0.267367 0.960267
vn -0.299839 0.947847 0.108090
vn -0.103438 0.987895 0.115604
vn -0.097199 0.267040 0.958771
vn -0.082072 0.269036 0.959627
vn -0.290727 0.953000 0.085259
vn -0.332344 0.938036 0.098165
vn -0.115230 0.993318 0.006409
vn -0.299643 0.953995 0.010384
vn -0.297890 0.954532 0.011385
vn -0.135813 0.990711 0.006861
vn -0.324485 0.945878 0.004935
vn -0.292449 0.956281 -0.000310
vn -0.293043 0.956099 0.000000
vn -0.306508 0.951851 0.005706
vn -0.290898 0.935025 -0.202749
vn -0.143893 0.964981 -0.219334
vn -0.289709 0.945220 -0.150423
vn -0.291018 0.938038 -0.188129
vn -0.068523 0.223565 -0.972277
vn -0.070250 0.209643 -0.975251
vn -0.061313 0.201024 -0.977666
vn -0.024973 0.211005 -0.977166
vn -0.383424 0.005704 0.923555
vn -0.245218 0.111585 0.963025
vn -0.205651 0.139269 0.968665
vn -0.328087 0.050214 0.943312
vn -0.116699 0.198719 0.973084
vn -0.119645 0.196810 0.973114
vn 0.022839 0.275925 0.960908
vn 0.001561 0.265473 0.964117
vn -0.998662 0.051718 0.000000
vn -0.874382 0.485239 0.000000
vn -0.874542 0.484949 0.000000
vn -0.998662 0.051708 0.000000
vn -0.507303 0.861768 0.000000
vn -0.507469 0.861670 0.000000
vn 0.052480 0.998622 0.000000
vn 0.052460 0.998623 0.000000
vn -0.874540 0.484954 0.000000
vn -0.998662 0.051707 0.000000
vn -0.507467 0.861671 0.000000
vn 0.052460 0.998623 0.000000
vn -0.874306 0.485376 0.000000
vn -0.998662 0.051720 0.000000
vn -0.507225 0.861814 0.000000
vn 0.052489 0.998622 0.000000
vn -0.251331 0.042433 -0.966971
vn -0.157983 0.112562 -0.981005
vn -0.180902 0.096504 -0.978755
vn -0.285230 0.012516 -0.958377
vn -0.097833 0.155527 -0.982975
vn -0.093089 0.158942 -0.982890
vn -0.000437 0.217111 -0.976147
vn 0.021138 0.228993 -0.973198
vn -0.403395 -0.010792 0.914962
vn -0.403395 -0.010792 0.914962
vn -0.999663 -0.025952 0.000000
vn -0.999663 -0.025953 0.000000
vn -0.999663 -0.025953 0.000000
vn -0.999663 -0.025952 0.000000
vn 0.018020 0.275626 0.961096
vn 0.064792 0.992470 0.103946
vn 0.063664 0.997971 0.000602
vn 0.061288 0.998120 0.000618
vn 0.059359 0.982266 -0.177849
vn 0.014542 0.226439 -0.973917
vn -0.304641 -0.004872 -0.952455
vn -0.304641 -0.004872 -0.952455
vn 0.219456 0.036781 -0.974929
vn 0.219456 0.036781 -0.974929
vn 0.219456 0.036781 -0.974929
vn 0.219456 0.036781 -0.974929
vn -0.614914 -0.103059 -0.781831
vn -0.614914 -0.103059 -0.781831
vn -0.614914 -0.103059 -0.781831
vn -0.614914 -0.103059 -0.781831
vn -0.986245 -0.165293 0.000000
vn -0.986245 -0.165293 0.000000
vn -0.986245 -0.165293 0.000000
vn -0.986245 -0.165293 0.000000
vn -0.614919 -0.103059 0.781828
vn -0.614919 -0.103059 0.781827
vn -0.614919 -0.103059 0.781827
vn -0.614919 -0.103059 0.781828
vn 0.219469 0.036782 0.974926
vn 0.219469 0.036782 0.974926
vn 0.219469 0.036782 0.974926
vn 0.219469 0.036782 0.974926
vn 0.888574 0.148925 0.433886
vn 0.888574 0.148925 0.433886
vn 0.888574 0.148925 0.433886
vn 0.888574 0.148925 0.433886
vn 0.888576 0.148924 -0.433883
vn 0.888576 0.148924 -0.433883
vn 0.888576 0.148924 -0.433883
vn 0.888576 0.148924 -0.433883
vn 0.244837 -0.969543 0.006426
vn 0.244837 -0.969543 0.006426
vn 0.244837 -0.969543 0.006426
vn 0.244837 -0.969543 0.006426
vn -0.001996 0.006124 0.999979
vn -0.001996 0.006124 0.999979
vn -0.001996 0.006124 0.999979
vn -0.001996 0.006124 0.999979
vn -0.244840 0.969542 -0.006426
vn -0.244840 0.969542 -0.006426
vn -0.244840 0.969542 -0.006426
vn -0.244840 0.969542 -0.006426
vn 0.001997 -0.006124 -0.999979
vn 0.001997 -0.006124 -0.999979
vn 0.001997 -0.006124 -0.999979
vn 0.001997 -0.006124 -0.999979
vn 0.969562 0.244847 0.000434
vn 0.969562 0.244847 0.000434
vn 0.969562 0.244847 0.000434
vn 0.969562 0.244847 0.000434
vn -0.969561 -0.244849 -0.000434
vn -0.969561 -0.244849 -0.000434
vn -0.969561 -0.244849 -0.000434
vn -0.969561 -0.244849 -0.000434
vn 0.244838 -0.969543 0.006427
vn 0.244838 -0.969543 0.006427
vn 0.244838 -0.969543 0.006427
vn 0.244838 -0.969543 0.006427
vn -0.001994 0.006124 0.999979
vn -0.001994 0.006124 0.999979
vn -0.001994 0.006124 0.999979
vn -0.001994 0.006124 0.999979
vn -0.244841 0.969542 -0.006427
vn -0.244841 0.969542 -0.006427
vn -0.244841 0.969542 -0.006427
vn -0.244841 0.969542 -0.006427
vn 0.001995 -0.006124 -0.999979
vn 0.001995 -0.006124 -0.999979
vn 0.001995 -0.006124 -0.999979
vn 0.001995 -0.006124 -0.999979
vn 0.969561 0.244849 0.000433
vn 0.969561 0.244849 0.000433
vn 0.969561 0.244849 0.000433
vn 0.969561 0.244849 0.000433
vn -0.969561 -0.244849 -0.000435
vn -0.969561 -0.244849 -0.000435
vn -0.969561 -0.244849 -0.000435
vn -0.969561 -0.244849 -0.000435
s off
g pCylinder13
usemtl initialShadingGroup
f 1/1/1 2/2/2 9/3/3 8/4/4
f 2/2/5 3/5/6 10/6/7 9/3/8
f 3/5/9 4/7/10 11/8/11 10/6/12
f 4/7/13 5/9/14 12/10/15 11/8/16
f 5/9/17 6/11/18 13/12/19 12/10/20
f 6/11/21 7/13/22 14/14/23 13/12/24
f 7/13/25 1/15/26 8/16/27 14/14/28
s 1
f 68/17/29 17/18/30 32/19/31 67/20/32
f 74/21/33 18/22/34 31/23/35 73/24/36
f 66/25/37 21/26/38 25/27/39 65/28/40
f 72/29/41 22/30/42 26/31/43 71/32/44
f 65/28/40 25/27/39 36/33/45 64/34/46
f 71/32/44 26/31/43 35/35/47 70/36/48
f 73/37/36 31/38/35 22/30/42 72/29/41
f 67/39/32 32/40/31 21/26/38 66/25/37
f 70/41/48 35/42/47 30/43/49 69/44/50
f 64/45/46 36/46/45 29/47/51 63/48/52
f 42/49/53 41/50/54 44/51/55 45/52/56
f 41/50/54 40/53/57 43/54/58 44/51/55
f 40/53/57 39/55/59 46/56/60 43/54/58
f 45/57/61 44/58/62 48/59/63 49/60/64
f 44/58/62 43/61/65 47/62/66 48/59/63
f 43/61/65 46/63/67 50/64/68 47/62/66
f 49/60/64 48/59/63 52/65/69 53/66/70
f 48/59/63 47/62/66 51/67/71 52/65/69
f 47/62/66 50/64/68 54/68/72 51/67/71
f 53/66/70 52/65/69 55/69/73 58/70/74
f 52/65/69 51/67/71 56/71/75 55/69/73
f 51/67/71 54/68/72 57/72/76 56/71/75
f 58/73/77 55/74/78 60/75/79 59/76/80
f 55/74/78 56/77/81 61/78/82 60/75/79
f 56/77/81 57/79/83 62/80/84 61/78/82
f 15/81/85 42/49/53 45/52/56 34/82/86
f 19/83/87 49/60/64 53/66/70 23/84/88
f 23/84/88 53/66/70 58/70/74 38/85/89
f 34/86/90 45/57/61 49/60/64 19/83/87
f 46/56/60 39/55/59 16/87/91 33/88/92
f 50/64/68 46/63/67 33/89/92 20/90/93
f 54/68/72 50/64/68 20/90/93 24/91/94
f 57/72/76 54/68/72 24/91/94 37/92/95
f 62/80/84 57/79/83 37/93/95 28/94/96
f 38/95/97 58/73/77 59/76/80 27/96/98
f 37/93/95 64/45/46 63/48/52 28/94/96
f 24/91/94 65/28/40 64/34/46 37/92/95
f 20/90/93 66/25/37 65/28/40 24/91/94
f 33/89/92 67/39/32 66/25/37 20/90/93
f 16/87/91 68/17/29 67/20/32 33/88/92
f 36/46/45 70/41/48 69/44/50 29/47/51
f 25/27/39 71/32/44 70/36/48 36/33/45
f 21/26/38 72/29/41 71/32/44 25/27/39
f 32/40/31 73/37/36 72/29/41 21/26/38
f 17/18/30 74/21/33 73/24/36 32/19/31
s off
f 75/97/99 76/98/100 83/99/101 82/100/102
f 76/98/103 77/101/104 84/102/105 83/99/106
f 77/101/107 78/103/108 85/104/109 84/102/110
f 78/103/111 79/105/112 86/106/113 85/104/114
f 79/105/115 80/107/116 87/108/117 86/106/118
f 80/107/119 81/109/120 88/110/121 87/108/122
f 81/109/123 75/111/124 82/112/125 88/110/126
f 89/113/127 90/114/128 92/115/129 91/116/130
f 91/116/131 92/115/132 94/117/133 93/118/134
f 93/118/135 94/117/136 96/119/137 95/120/138
f 95/120/139 96/119/140 90/121/141 89/122/142
f 90/114/143 96/123/144 94/124/145 92/115/146
f 95/125/147 89/113/148 91/116/149 93/126/150
f 97/127/151 98/128/152 100/129/153 99/130/154
f 99/130/155 100/129/156 102/131/157 101/132/158
f 101/132/159 102/131/160 104/133/161 103/134/162
f 103/134/163 104/133/164 98/135/165 97/136/166
f 98/128/167 104/137/168 102/138/169 100/129/170
f 103/139/171 97/127/172 99/130/173 101/140/174
